

<svg xmlns="http://www.w3.org/2000/svg" width='150' height='200' stroke="#000" fill="none" >
<path d=" M75 75 L75 125 "/>
<path d=" M25 75 L25 125 L75 125 L75 75 L125 75 L125 125 "/>
<path d=" M25 25 L75 75 L75 125 L125 175 "/>
<path d=" M75 25 L25 75 L75 125 L25 175 L75 175 L125 125 L75 75 L125 25 "/>
<path d=" M25 75 L25 25 L125 25 L75 75 L75 125 L25 175 L125 175 L125 125 "/>
<path d=" M25 175 L25 75 L75 25 L125 75 L125 175 L75 175 L75 75 "/>
<path d=" M25 75 L25 25 L125 125 L25 125 L125 25 L125 75 "/>
<path d=" M25 25 L125 75 L25 125 L75 175 L125 125 L25 75 L125 25 "/>
<path d=" M125 75 L125 125 L25 25 L75 25 L75 175 L125 175 L25 75 L25 125 "/>
<path d=" M25 125 L25 175 L75 75 L125 175 L125 25 L75 125 L25 25 L25 75 "/>
<path d=" M125 175 L25 75 L25 25 L125 125 L75 175 L25 125 L125 25 L125 75 L25 175 "/>
<path d=" M125 125 L25 25 L125 25 L125 175 L25 175 L125 75 "/>
<path d=" M75 175 L75 25 L125 75 L125 175 L25 175 L25 125 L75 75 "/>
<path d=" M75 25 L75 175 L75 125 L25 75 L75 75 "/>
<path d=" M75 125 L125 125 L25 25 L75 25 L75 175 L125 175 L25 75 L75 75 "/>
<path d=" M25 125 L125 125 L125 25 L25 25 L25 175 L125 175 L125 75 L25 75 "/>
</svg>