<svg id="logo" xmlns="http://www.w3.org/2000/svg" viewBox="0 0 1958.38 480.76">
<g>
<path style="stroke: #fff; stroke-miterlimit: 10; stroke-width: 5px; fill: #fff;" d="M432.94,14.08l-45.31,169.09-55.62,.04L377.32,14.12l55.62-.04m7.82-6.01l-68.04,.05-48.52,181.1,68.04-.05L440.76,8.08h0Z"></path>
<path style="stroke: #fff; stroke-miterlimit: 10; stroke-width: 5px; fill: #fff;" d="M403.07,189.19L451.61,8.04l110.27-.07-6.57,92.67L598.4,7.94l110.33-.07-48.54,181.15-72.02,.05,25.17-93.94-44,93.95-74.86,.05,6.26-95.7-25.65,95.72-72.02,.05ZM456.21,14.03l-45.32,169.15,59.6-.04,30.97-115.6h6.98s-7.56,115.58-7.56,115.58l64.64-.04,54.14-115.61h7.3s-30.97,115.59-30.97,115.59l59.6-.04L700.9,13.87l-98.68,.07-47.12,101.35h-6.86s7.19-101.32,7.19-101.32l-99.23,.07Z"></path>
<path style="stroke: #fff; stroke-miterlimit: 10; stroke-width: 5px; fill: #fff;" d="M672.81,189.01L721.35,7.86l110.27-.07-6.58,92.67L868.14,7.76l110.33-.07-48.54,181.15-72.02,.05,25.17-93.94-44,93.96-74.86,.05,6.26-95.71-25.65,95.72-72.02,.05ZM725.95,13.86l-45.32,169.15,59.59-.04,30.97-115.6h6.98s-7.56,115.58-7.56,115.58l64.64-.04,54.14-115.61h7.3s-30.97,115.59-30.97,115.59l59.59-.04L970.64,13.69l-98.68,.07-47.12,101.35h-6.86s7.19-101.32,7.19-101.32l-99.23,.07Z"></path>
<path style="stroke: #fff; stroke-miterlimit: 10; stroke-width: 5px; fill: #fff;" d="M1133.74,13.6l-11.61,47.32-77.36,.05h-4.6s-1.19,4.45-1.19,4.45l-3.12,11.64-2.03,7.56h7.82s74-.05,74-.05l-9.59,32.16-77.59,.05h-4.6s-1.19,4.45-1.19,4.45l-3.12,11.64-2.03,7.56h7.82s74.23-.05,74.23-.05l-11.34,42.33-137.67,.09L995.9,13.7l137.84-.09m7.65-6.01l-150.1,.1-48.52,181.1,150.1-.1,14.56-54.33-82.06,.05,3.12-11.64,82.06-.06,13.17-44.17-82.06,.06,3.12-11.64,82.06-.05,14.56-59.32h0Z"></path>
<path style="stroke: #fff; stroke-miterlimit: 10; stroke-width: 5px; fill: #fff;" d="M1414.99,2.5v6c32.83,0,46.3,11.18,51.41,17.84,6.15,8.02,7.86,18.83,5.1,32.2l-51.69,.03c-.35-3.48-1.68-6.03-3.01-7.77-3.19-4.15-8.5-6.44-14.99-6.44-15.31,.01-19.99,8.96-21.42,14.29-.85,3.16-.43,6.31,1.2,9.1,4.48,7.65,16.9,10.83,31.28,14.5,1.06,.27,2.12,.54,3.17,.81,1.61,.42,3.45,.83,5.39,1.27,11.19,2.53,28.11,6.35,35.15,18.01,3.99,6.6,4.53,15.47,1.61,26.35-6.04,22.53-17.3,37.99-34.45,47.26-14.45,7.81-33.11,11.46-58.74,11.48h-.12c-29.16,0-50.2-7.32-60.83-21.18-8.67-11.29-8.57-24.11-7.03-32.74l52.87-.04c.33,3.71,1.75,6.43,3.17,8.28,3.78,4.92,10.77,7.74,19.21,7.74,6.95,0,19.08-1.73,22.16-13.25,.94-3.5,1.34-10.07-6.5-14.68-3.97-2.33-9.6-3.99-16.73-6.08-2.43-.71-4.94-1.45-7.67-2.3-39-11.91-48.4-22.34-41.94-46.48,6.54-24.42,20.03-40.7,41.22-49.77,17.34-7.42,36.05-8.43,52.07-8.44h.05s0,0,0,0l.04-6m0,0s-.06,0-.09,0c-29.05,.02-83.07,2.9-99.09,62.66-7.97,29.75,7.12,41.9,45.98,53.77,18.35,5.68,29.15,7.22,26.86,15.76-1.53,5.69-6.94,8.8-16.37,8.81h-.02c-8.91,0-19.07-3.88-15.81-16.03,0,0-45.87,.03-64.22,.04-7.83,29.22,5.75,65.91,72.67,65.91h.12c46.13-.03,85.11-11.44,98.97-63.18,11.85-44.24-30.48-48.87-46.44-52.99-15.97-4.13-33.78-8-31.36-17.05,1.87-6.98,7.73-9.83,15.63-9.84h.01c8.4,0,13.96,4.91,11.46,14.22,0,0,42.05-.03,62.95-.04,12.74-47.56-24.58-62.04-61.25-62.04h0Z"></path>
<path style="stroke: #fff; stroke-miterlimit: 10; stroke-width: 5px; fill: #fff;" d="M1566.59,13.31l-45.31,169.09-55.62,.04,45.31-169.09,55.62-.04m7.82-6.01l-68.04,.05-48.52,181.1,68.04-.05L1574.41,7.31h0Z"></path>
<path style="stroke: #fff; stroke-miterlimit: 10; stroke-width: 5px; fill: #fff;" d="M1784.44,13.17l-97.66,169.13-88.89,.06-7.04-169.06,64.39-.04-5.71,113.2-.32,6.31h6.31s4.59,0,4.59,0h3.75s1.64-3.38,1.64-3.38l56.38-116.16,62.55-.04m10.4-6.01l-76.71,.05-58.02,119.54h-4.59s6.03-119.5,6.03-119.5l-76.96,.05,7.54,181.06,98.11-.07L1794.84,7.16h0Z"></path>
<path style="stroke: #fff; stroke-miterlimit: 10; stroke-width: 5px; fill: #fff;" d="M1947.3,13.06l-11.34,42.33-77.46,.05h-4.6s-1.19,4.45-1.19,4.45l-3.12,11.64-2.03,7.56h7.82s74.23-.06,74.23-.06l-9.95,37.15-77.46,.05h-4.6s-1.19,4.45-1.19,4.45l-3.12,11.64-2.03,7.56h7.82s74.23-.06,74.23-.06l-11.34,42.33-137.67,.09,45.31-169.09,137.67-.09m7.82-6.01l-150.1,.1-48.52,181.1,150.1-.1,14.56-54.33-82.06,.06,3.12-11.64,82.06-.06,13.17-49.15-82.06,.06,3.12-11.64,82.06-.06,14.56-54.33h0Z"></path>
<path style="stroke: #fff; stroke-miterlimit: 10; stroke-width: 5px; fill: #fff;" d="M1245.22,13.53c25.08,0,41.93,5.39,50.09,16.02,7.19,9.37,8.25,23.79,3.14,42.86-6.07,22.64-17.03,38.58-33.52,48.71l-3.78,2.32,1.11,4.29,14.22,54.83-60.24,.04-8.99-43.57-.99-4.79h-4.89s-4.84,0-4.84,0h-9.94s-4.6,.01-4.6,.01l-1.19,4.44-11.77,43.93-55.52,.04,27.56-98.39h85.13l1.63-1.28,14.3-11.25,13.62-10.72h-108.58l11.65-47.45c18.51-.01,85.4-.06,86.28-.06h.12m0-6s-.08,0-.12,0c-1.02,0-90.98,.06-90.98,.06l-14.59,59.44h98.89l-14.3,11.25h-87.61l-30.92,110.4,68.04-.05,12.96-48.38c4.84,0,10.45,0,14.78,0l9.97,48.36,72.88-.05-16.17-62.33c17.69-10.88,29.73-28.21,36.17-52.27,11.91-44.46-7.38-66.44-59.02-66.44h0Z"></path>
</g>
<g>
<polygon style="fill: #fff;" points="1108.62 395.64 991.67 395.72 996.12 379.13 1113.06 379.05 1131.83 309 1014.89 309.08 1019.33 292.48 1136.28 292.41 1157.03 214.98 943.11 215.12 873.95 473.21 1087.87 473.07 1108.62 395.64"></polygon>
<path style="fill: #fff;" d="M1775.86,387.45h-5.81s-51.52,85.19-51.52,85.19l-107.5,.07,92.98-134.25-20.19-123.85,103.87-.07,5.87,85.15h5.81s51.88-85.19,51.88-85.19l103.88-.07-86.95,123.92,21.06,134.17-107.14,.07-6.23-85.15Z"></path>
<path style="fill: #fff;" d="M1565.46,207.7c-79.64,.05-149.12,50.27-174.95,121.51h192.74l-16.86,15.97h-180.82c-20.31,78.21,22.48,134.68,106.98,134.63,84.99-.06,158.41-57.25,179.55-136.15,21.14-78.9-21.66-136.01-106.64-135.96Z"></path>
<path style="fill: #fff;" d="M1323.36,214.87c-12.35,0-148.18,.1-148.18,.1l-20.96,78.24h148.31l-17.86,15.97h-134.73l-18.45,68.85h148.31l-17.86,15.97h-134.73l-21.19,79.07s140.56-.09,155.08-.1c57.75-.04,91.57-23.29,104.22-70.48,8.4-31.34-2.75-57.5-28.7-62.28l.69-2.58c21.39-2.6,46.04-25.47,54.44-56.81,12.74-47.56-9.92-65.98-68.39-65.94Z"></path>
<path style="fill: #fff;" d="M771.34,215.24l-69.43,149.35h-2.54s10.59-149.3,10.59-149.3l-154.36,.1-42.64,159.12-4.39-159.08-143.1,.1-58.74,104.27h137.87l-15,15.97h-131.87l-21.91,38.9,10.42-38.9-128.57,.09-12.55,46.83h21.79s-1.09,4.04-1.09,4.04c-6.47,5.16-15.81,8.86-27.7,8.5-28.49-.72-33.76-25.78-27.14-50.48,6.62-24.7,27.9-43.15,52.24-43.17,18.77-.01,28.11,8.36,30.24,18.23h97.04c11.8-61.88-29.07-111.19-105.29-111.14-84.99,.06-158.77,57.25-179.92,136.15-21.14,78.9,22.02,136.01,107.01,135.96,30.87-.02,57.11-8.52,79.13-22.91l-4.25,15.85,62.11-.04h0s74.62-.06,74.62-.06l20.41-40.93,69.01-.05-1.52,40.92,103.87-.07h0s67.72-.06,67.72-.06l45.64-170.34h2.18s-11.14,170.32-11.14,170.32l102.78-.07,79.78-170.37h2.18s-45.64,170.34-45.64,170.34l96.97-.06,69.16-258.09-153.99,.1Z"></path>
</g>
<polygon style="fill: #fff;" points="344.55 74.35 331.37 123.65 44.97 101.07 344.55 74.35"></polygon>
<polygon style="fill: #fff;" points="327.16 139.4 314.08 188.33 40.24 167.49 327.16 139.4"></polygon>
<polygon style="fill: #fff;" points="362.26 8.08 349.09 57.36 51.72 40.88 362.26 8.08"></polygon>
</svg>